<?xml version="1.0" standalone="no"?>
<!DOCTYPE svg PUBLIC "-//W3C//DTD SVG 20010904//EN"
 "http://www.w3.org/TR/2001/REC-SVG-20010904/DTD/svg10.dtd">
<svg version="1.0" xmlns="http://www.w3.org/2000/svg"
 width="500.000000pt" height="500.000000pt" viewBox="0 0 500.000000 500.000000"
 preserveAspectRatio="xMidYMid meet">
<metadata>
Created by potrace 1.14, written by Peter Selinger 2001-2017
</metadata>
<g transform="translate(0.000000,500.000000) scale(0.100000,-0.100000)"
fill="#000000" stroke="none">
<path d="M2270 4963 c-8 -3 -40 -23 -72 -44 -31 -21 -90 -55 -131 -74 -163
-77 -231 -218 -231 -475 0 -143 7 -177 75 -405 77 -256 110 -345 129 -345 29
0 78 -54 105 -117 21 -49 32 -62 60 -72 19 -7 43 -23 53 -36 11 -14 45 -97 77
-185 32 -88 61 -160 66 -160 4 0 26 21 49 48 89 100 187 351 274 702 96 390
127 603 95 662 -6 12 -29 38 -50 58 -31 30 -39 44 -39 73 0 117 -50 200 -129
213 -40 6 -175 87 -227 135 -22 21 -78 33 -104 22z"/>
<path d="M3092 4584 c-60 -22 -152 -111 -191 -184 -18 -34 -31 -63 -28 -66 14
-14 207 21 309 56 137 48 156 49 189 11 23 -27 45 -36 132 -55 21 -5 33 -17
45 -47 l18 -41 22 64 c12 34 28 96 36 136 13 71 13 74 -8 87 -28 19 -75 22
-177 12 -74 -7 -93 -6 -149 13 -86 29 -146 33 -198 14z"/>
<path d="M1040 4451 c-36 -3 -70 -9 -77 -14 -25 -16 -36 -79 -29 -171 10 -114
11 -101 -15 -171 -27 -77 -22 -170 16 -275 14 -41 31 -109 36 -150 20 -160 46
-210 156 -304 43 -36 101 -93 128 -126 60 -73 121 -120 207 -160 89 -42 179
-60 338 -67 l134 -6 -36 32 c-20 17 -39 41 -42 54 -4 15 -29 32 -77 56 -86 40
-112 75 -106 138 3 29 -2 55 -15 81 -21 44 -14 80 20 104 14 10 20 24 19 50
-1 54 18 71 75 66 26 -3 48 -1 48 3 0 5 9 18 20 29 24 24 67 26 98 4 12 -8 31
-13 41 -9 17 5 15 16 -31 158 -68 212 -117 391 -126 462 l-7 59 -42 11 c-23 5
-55 22 -70 37 -54 52 -93 61 -268 63 -138 2 -168 5 -220 25 -73 27 -91 29
-175 21z"/>
<path d="M3181 4370 c-80 -28 -145 -43 -220 -51 -58 -6 -107 -12 -107 -13 -1
0 -16 -75 -34 -166 -102 -518 -230 -903 -347 -1047 -24 -29 -43 -55 -43 -58 0
-3 24 -5 53 -5 33 0 73 -10 112 -26 145 -63 205 -56 297 36 l58 59 0 198 c0
109 4 212 9 230 5 18 12 63 16 100 4 37 11 88 17 113 5 25 11 53 13 64 9 42
59 88 132 124 61 29 78 42 91 71 40 89 69 118 155 159 117 56 180 134 130 160
-10 5 -42 15 -70 22 -37 8 -60 21 -77 41 -15 17 -34 29 -48 28 -13 0 -74 -18
-137 -39z"/>
<path d="M3587 4245 c-71 -152 -81 -224 -51 -352 9 -37 19 -99 23 -138 l7 -70
12 65 c19 98 33 311 30 430 l-3 105 -18 -40z"/>
<path d="M3513 4210 c-7 -10 -50 -37 -96 -60 -95 -45 -119 -68 -162 -148 -27
-52 -37 -60 -110 -97 -68 -35 -82 -46 -102 -86 -13 -25 -28 -77 -34 -115 -5
-38 -16 -106 -24 -151 -9 -49 -15 -144 -15 -240 l0 -158 44 82 c25 45 59 103
76 128 42 62 55 94 95 248 45 170 102 285 199 402 96 116 149 191 145 204 -2
6 -10 2 -16 -9z"/>
<path d="M3425 4028 c-109 -133 -157 -218 -194 -351 -18 -61 -41 -143 -52
-182 -12 -39 -42 -103 -68 -145 -75 -117 -150 -260 -137 -260 35 0 89 28 225
115 174 112 241 178 297 290 52 105 57 208 21 386 -21 101 -25 136 -18 180 5
30 8 55 6 57 -2 2 -38 -39 -80 -90z"/>
<path d="M4089 4029 c-24 -18 -92 -80 -151 -137 -84 -82 -108 -111 -108 -132
0 -15 18 -70 40 -123 22 -52 40 -107 40 -122 0 -24 4 -21 49 33 61 73 149 152
223 200 41 26 58 43 58 58 0 40 -39 149 -73 202 l-33 53 -45 -32z"/>
<path d="M4298 3785 c-119 -61 -164 -94 -251 -180 -130 -128 -177 -218 -177
-335 0 -46 18 -167 27 -179 1 -2 30 22 65 54 76 68 196 129 291 148 l69 13 28
67 c15 37 45 90 65 118 34 48 36 54 30 107 -8 73 -35 214 -44 227 -3 6 -45
-10 -103 -40z"/>
<path d="M3717 3722 c-174 -147 -240 -298 -207 -473 13 -68 12 -80 -13 -206
l-26 -134 70 -134 c39 -74 73 -135 75 -135 16 0 103 75 108 93 3 12 28 54 57
92 99 135 109 183 74 353 -18 88 -15 127 20 252 19 66 14 99 -30 205 -19 44
-37 95 -40 113 -4 17 -10 32 -13 32 -4 0 -37 -26 -75 -58z"/>
<path d="M1858 3609 c-12 -7 -18 -22 -18 -49 0 -32 7 -48 36 -80 20 -22 43
-40 52 -40 32 0 99 -50 146 -109 27 -34 50 -61 52 -61 9 0 -31 83 -91 189 -83
147 -124 181 -177 150z"/>
<path d="M1990 3591 c0 -5 25 -51 55 -102 30 -51 55 -97 55 -102 0 -5 11 5 25
22 l26 30 -29 63 c-16 36 -40 71 -55 81 -28 18 -77 23 -77 8z"/>
<path d="M1724 3556 c-3 -8 -4 -27 -2 -42 2 -21 10 -30 32 -35 16 -5 44 -23
63 -41 31 -30 34 -31 50 -16 15 16 14 19 -15 53 -18 20 -32 44 -32 53 0 10 -5
23 -12 30 -17 17 -77 15 -84 -2z"/>
<path d="M4473 3528 c-40 -43 -73 -98 -107 -179 -28 -66 -28 -67 -74 -73 -75
-10 -166 -44 -233 -87 -78 -51 -159 -133 -159 -162 0 -49 -24 -103 -86 -194
-36 -52 -63 -98 -60 -101 14 -13 62 38 82 86 11 29 24 55 27 58 10 10 55 -93
69 -156 6 -30 13 -57 14 -59 2 -2 16 6 32 18 17 11 60 28 98 36 118 28 145 50
197 165 44 96 136 344 177 478 22 70 42 115 62 138 30 34 32 64 5 64 -7 0 -27
-15 -44 -32z"/>
<path d="M1682 3448 c-26 -26 -7 -91 38 -125 40 -31 218 -131 245 -138 27 -6
23 0 -37 57 -50 48 -68 73 -73 101 -10 51 -82 117 -128 117 -18 0 -38 -5 -45
-12z"/>
<path d="M1882 3408 c-16 -16 -15 -53 3 -88 24 -47 301 -272 423 -344 38 -22
-38 84 -182 259 -138 166 -204 213 -244 173z"/>
<path d="M2147 3402 c-35 -38 -22 -82 59 -208 42 -66 98 -152 123 -191 46 -73
71 -91 71 -52 0 21 -121 361 -146 411 -13 25 -60 58 -82 58 -5 0 -16 -8 -25
-18z"/>
<path d="M968 3385 c-123 -26 -234 -84 -308 -159 -56 -57 -80 -100 -80 -147 0
-48 -26 -131 -65 -209 -68 -136 -75 -189 -26 -205 16 -5 20 -14 18 -46 -2 -59
23 -79 117 -89 94 -11 138 -31 179 -82 74 -92 88 -105 140 -132 67 -34 139
-53 230 -62 l70 -7 -8 39 c-15 72 -12 97 14 110 16 8 32 9 47 4 19 -8 29 -4
53 20 49 50 109 41 183 -28 l27 -25 35 30 c19 17 63 40 99 52 128 43 252 133
366 265 54 64 97 102 140 128 63 36 63 36 39 52 -12 8 -68 32 -123 52 -96 36
-106 37 -275 44 -205 9 -293 26 -406 81 -71 33 -94 52 -173 136 -104 111 -198
193 -221 192 -8 -1 -41 -7 -72 -14z"/>
<path d="M1696 3303 c-12 -12 -6 -48 12 -78 12 -19 42 -41 80 -59 l61 -29 26
26 26 26 -32 16 c-18 10 -62 37 -100 60 -37 24 -70 41 -73 38z"/>
<path d="M3249 3206 c-20 -7 -63 -34 -95 -59 -43 -33 -79 -51 -134 -66 -58
-16 -83 -29 -115 -60 -48 -48 -116 -80 -168 -81 -20 0 -77 15 -125 34 -48 18
-110 36 -139 38 l-52 5 0 -55 c1 -35 11 -78 29 -122 82 -199 78 -335 -15 -526
-51 -102 -60 -165 -26 -184 28 -14 87 -12 119 4 37 19 115 105 189 208 34 48
74 95 89 105 39 25 101 21 184 -12 76 -31 100 -26 100 21 0 29 13 37 70 44
l45 5 -2 40 c-7 149 -6 160 14 200 12 22 50 66 86 97 83 74 111 128 105 206
-5 69 -41 149 -71 157 -46 14 -53 14 -88 1z"/>
<path d="M1892 3148 c-21 -21 -14 -63 16 -90 17 -16 100 -52 225 -97 188 -69
228 -79 228 -56 1 6 -84 65 -188 132 -161 105 -194 123 -228 123 -23 0 -46 -5
-53 -12z"/>
<path d="M3432 3035 c-3 -75 -40 -143 -111 -206 -82 -72 -106 -121 -98 -202 4
-34 9 -74 13 -88 8 -35 -18 -59 -64 -59 -48 0 -59 -9 -64 -45 -5 -48 -43 -55
-123 -22 -73 30 -140 35 -173 12 -12 -9 -53 -60 -92 -113 -38 -53 -79 -110
-92 -126 -12 -16 -18 -27 -12 -25 176 74 223 88 359 103 190 21 255 43 255 84
0 10 11 28 24 41 34 32 73 116 92 196 9 39 34 143 56 231 28 116 38 177 35
215 l-3 54 -2 -50z"/>
<path d="M2383 2883 c-7 -2 -14 -14 -14 -26 -1 -17 -2 -18 -6 -4 -6 21 -50 23
-98 3 -56 -24 -138 -91 -193 -160 -94 -117 -223 -210 -369 -266 -44 -17 -91
-43 -106 -58 -25 -26 -25 -28 -8 -50 l17 -23 24 38 c36 55 62 54 211 -5 373
-149 432 -140 589 93 48 71 55 87 58 141 5 67 -21 186 -58 273 -23 51 -25 54
-47 44z"/>
<path d="M3470 2846 c0 -23 44 -226 71 -324 11 -41 18 -76 16 -79 -12 -11 -72
179 -86 272 -8 48 -9 27 -8 -105 2 -156 4 -168 27 -209 27 -49 56 -72 113 -96
l37 -15 0 116 c0 106 -2 121 -30 187 -42 99 -139 276 -140 253z"/>
<path d="M3859 2818 c-3 -50 -9 -72 -37 -138 -35 -83 -101 -202 -102 -183 0
16 66 168 101 233 26 47 27 51 7 29 -13 -14 -57 -47 -99 -72 -101 -62 -106
-69 -89 -115 8 -20 17 -88 20 -150 l5 -112 36 29 c19 16 56 65 81 108 25 43
68 105 96 138 l50 60 -19 72 c-23 90 -47 140 -50 101z"/>
<path d="M4206 2745 c-28 -22 -54 -32 -146 -55 -90 -23 -175 -107 -271 -271
-21 -36 -54 -78 -74 -93 -20 -16 -34 -30 -31 -33 9 -9 163 35 217 62 83 42
155 102 215 178 53 68 129 208 122 226 -2 5 -16 -1 -32 -14z"/>
<path d="M1367 2408 c-13 -13 -26 -31 -29 -39 -4 -12 -7 -12 -21 -1 -9 7 -28
12 -44 10 -25 -3 -28 -6 -25 -37 3 -47 55 -173 94 -228 109 -160 292 -240 526
-231 90 3 105 6 175 41 135 67 290 233 376 406 18 34 30 65 28 67 -3 3 -21
-17 -41 -44 -49 -68 -106 -117 -151 -132 -76 -25 -196 1 -424 92 -68 27 -133
48 -145 46 -28 -4 -71 -88 -62 -123 16 -64 121 -139 211 -152 67 -9 57 -27
-11 -19 -117 14 -179 61 -220 169 -43 112 -106 182 -176 193 -30 5 -41 2 -61
-18z"/>
<path d="M3401 2318 c-16 -50 -3 -96 55 -187 l47 -73 24 38 c15 26 22 51 21
74 -3 29 -10 38 -42 57 -28 15 -48 37 -67 74 l-26 53 -12 -36z"/>
<path d="M3507 2323 c-2 -4 -8 -23 -12 -40 -5 -26 -3 -33 9 -33 8 0 27 -11 42
-24 l28 -23 34 23 c19 13 45 24 58 24 13 0 24 5 24 10 0 6 -21 10 -46 10 -48
0 -76 10 -110 42 -12 11 -24 16 -27 11z"/>
<path d="M3635 2219 c-38 -22 -65 -53 -65 -74 0 -11 -7 -31 -16 -43 -9 -13
-14 -25 -13 -26 2 -2 58 23 124 54 l119 57 -26 17 c-34 23 -97 30 -123 15z"/>
<path d="M2738 2188 c-45 -19 -46 -21 -36 -49 6 -17 8 -58 6 -92 l-5 -62 54
-48 c29 -27 81 -87 114 -134 47 -64 74 -91 115 -114 94 -54 94 -53 94 -273 0
-328 -25 -505 -91 -646 -50 -108 -67 -191 -75 -360 -6 -123 -4 -140 15 -192
36 -94 135 -176 232 -191 l37 -5 -20 71 c-10 40 -22 119 -25 178 -5 98 -3 115
31 250 58 232 103 543 95 653 -4 42 -2 46 29 60 18 9 39 31 49 51 14 29 15 40
4 77 -7 23 -25 53 -40 67 -26 24 -28 33 -34 131 -4 72 -14 131 -32 189 -33
103 -82 157 -200 218 -116 60 -154 91 -210 171 -27 40 -52 71 -55 71 -3 0 -26
-10 -52 -21z"/>
<path d="M2336 2152 c-57 -83 -197 -207 -281 -248 -76 -38 -83 -39 -194 -42
-103 -3 -163 4 -270 30 -25 6 -46 -87 -33 -150 24 -115 94 -160 240 -153 27 1
37 8 60 45 15 25 43 70 62 101 71 116 147 133 328 71 142 -48 171 -52 226 -27
65 28 150 113 186 184 31 62 39 123 21 170 l-9 24 -84 -28 c-136 -47 -213 -35
-220 33 l-3 32 -29 -42z"/>
<path d="M3323 2135 c-12 -8 -29 -38 -38 -66 -11 -33 -34 -69 -64 -100 l-46
-47 36 -43 37 -42 121 103 c78 66 118 107 113 114 -65 87 -74 96 -106 96 -17
0 -41 -7 -53 -15z"/>
<path d="M2025 1810 c-30 -12 -77 -67 -118 -136 -21 -34 -37 -64 -37 -68 0
-11 74 31 95 54 11 13 38 36 59 51 37 28 44 29 155 30 163 1 171 8 57 47 -95
32 -169 40 -211 22z"/>
</g>
</svg>
